<svg xmlns="http://www.w3.org/2000/svg" width="1153.333" height="270.667"><svg version="1.0" xmlns="http://www.w3.org/2000/svg" width="1153.333" height="270.667" viewBox="0 0 865 203"><g fill="#ee722e"><path d="M78.8 9.2C55.9 10.9 37.3 22.4 28.7 40c-6.3 12.8-7.2 18-7.2 40 0 21.5 1.1 27.3 7.7 40.5 6.5 12.8 21.5 23.9 38.3 28.1 9.5 2.3 30.4 2.4 40 0 17.2-4.2 32.4-15.4 39-29 11.9-24.2 10.8-63.9-2.3-84.2C131.6 16 108.9 6.9 78.8 9.2zm16.8 21.9c16.5 3 28.2 15 32 32.8 3.1 14.9.8 35.5-5.1 45.6-3.6 6.3-12.6 14-19.3 16.6-8.1 3.2-23.2 3.2-31.4 0-11.5-4.4-20.5-15.8-23.9-30.1-1.8-7.8-1.6-26.1.4-33.7 3.5-13.4 11-23.3 21.2-27.9 9.1-4.2 16.4-5.1 26.1-3.3zM499.4 16.2c1.9 3.5 11.6 21.3 21.5 39.6L539 89.2V149h24V90l21.5-39.5c11.8-21.8 21.5-39.8 21.5-40 0-.3-5.6-.5-12.5-.5-11.8 0-12.5.1-13.9 2.2-.8 1.3-7.3 13.3-14.4 26.8-7.2 13.4-13.4 24.6-13.9 24.7-.4.2-7.3-11.9-15.2-26.7l-14.3-27h-25.9l3.5 6.2zM786.2 67.2l.3 57.3 2.8 5.7c3.3 6.8 9 12.1 16.6 15.6 5.1 2.4 6.9 2.7 21.4 3l15.7.4V128h-10.7c-12.4 0-16.3-1.4-20-6.9-2.2-3.3-2.3-4.1-2.3-26.7V71h33V50h-33V10h-24.1l.3 57.2zM321 49.5c-18.9 4.3-32.3 17.4-36 35.2-1.9 8.9-.8 28.5 1.9 35.5 3.5 9 7.9 14.9 14.9 19.5 11.1 7.5 16.2 8.5 43.5 9.1l23.7.4v-21l-21.2-.4c-20.1-.3-21.6-.4-26.2-2.7-3.3-1.6-5.7-3.8-7.7-6.9-5.5-8.7-7.8-8.2 33.6-8.2H384v-9.3c0-16.9-3.9-28.4-12.8-37.9-5.5-5.9-11.1-9.4-19.5-12-8.3-2.6-22.4-3.2-30.7-1.3zm26.8 22.7c5.3 2.7 9.8 8.7 11.1 14.5l.9 4.3H310v-2.3c0-3.7 4.9-12.5 8.3-14.9 7.3-5.2 21.1-5.9 29.5-1.6zM761.4 49.5c-16.9 3.7-31.3 16.8-36.4 33.2-1.8 5.9-2 9.3-2 36.4V149h23.9l.3-29.8c.3-28.9.4-29.8 2.7-34.5 2.7-5.6 9.1-10.8 16.4-13.4l4.7-1.8V58.8c0-12.3.7-11.6-9.6-9.3zM178 119v69h24v-45h13.3c16.3 0 24.4-1.3 32.4-5 15.1-7 23.3-21.5 23.3-41.5S262.8 62 247.7 55c-8.9-4.2-16.1-5-44.4-5H178v69zm52.3-46.9c5.1 1.4 11.5 7.3 14 12.9 2.8 6.1 2.8 16.9 0 23-2.5 5.6-8.9 11.5-14 12.9-2.1.6-9.3 1.1-16 1.1H202V71h12.3c6.7 0 13.9.5 16 1.1zM403 99.4V149h24V70.8l10.8.3c12.5.5 16.9 2.4 20.2 9 1.9 3.6 2 6 2 36.4V149h24v-36c0-33.8-.1-36.3-2.1-41.4-2.7-7.3-9.6-14.8-16.7-18.3l-5.7-2.8-28.2-.3-28.3-.3v49.5zM618.2 86.7l.3 36.8 2.6 5.6c3.4 7.2 9.6 13.4 16.8 16.8 5.6 2.6 5.7 2.6 33.9 2.9l28.2.3V50h-24v78h-9.7c-10.5 0-16-1.7-19.6-5.8-4.2-4.7-4.6-8.3-4.7-41V50h-24.1l.3 36.7z"/></g></svg><style>@media (prefers-color-scheme:light){:root{filter:none}}</style></svg>