<svg version="1.0" xmlns="http://www.w3.org/2000/svg" width="1153.333" height="1153.333" viewBox="0 0 865 865"><path d="M71 340.5c-17.1 3.4-31.8 12.6-39.7 25-8.1 12.7-10.7 23.5-10.7 45.5 0 23.9 4.8 39.4 16 51.6 7.8 8.6 21.4 15.8 33.6 18.1 8 1.5 31.8.9 38.8-1 17.1-4.5 31.7-15.8 38.4-29.9 5.8-12.1 7.6-22.3 7.2-41.3-.4-17.5-.5-18.4-4.2-29.7-6.1-18.7-21.1-32-41.9-37.3-8.7-2.2-28.5-2.7-37.5-1zm35.2 25.4c11.2 5.4 19 17 21.6 32 1 5.6.8 22.4-.3 27.5-4.4 20.9-19.4 33.8-39 33.9-18.9.1-32.3-9.3-38.6-26.8-1.8-4.9-2.2-8.4-2.3-19.5-.1-15.7.4-19.8 3.8-27.6 8.6-20.7 33.8-29.6 54.8-19.5zM496 341.8c0 .4.6 1.6 1.3 2.7.8 1.1 3.6 6.3 6.4 11.5 2.8 5.2 10.3 19.1 16.7 30.8 6.4 11.7 13.2 24.2 15 27.8l3.4 6.5-.1 28.9c0 16 .2 29.2.4 29.5.5.4 13.1.8 21 .6l3.6-.1v-30l.1-29.9 2.4-4.3c2.6-4.3 5.6-9.9 12.1-21.8 1.9-3.6 7.7-14.4 13-24 5.2-9.6 10.8-20.1 12.5-23.3l3-5.7h-26.6l-14.5 27.1-14.4 27.1-4-7.4c-2.2-4-6.4-11.8-9.4-17.3-2.9-5.5-7.4-14-10.1-18.9-2.6-4.9-4.8-9.3-4.8-9.8 0-.4-6.1-.8-13.5-.8s-13.5.3-13.5.8zM785.8 341.7c-.3.4-.4 25.8-.3 56.3.2 48.4.4 56 1.8 59.8 4 10.7 13 18.8 23.2 21.1 4.3 1 17.4 1.5 29.3 1.2l3.3-.1-.3-10.8-.3-10.7-11.1-.2c-12.7-.1-16.4-1.4-19.1-6.6-1.4-2.7-1.7-6.6-1.8-26 0-14.7.3-22.7 1-22.8.5 0 7.9-.1 16.3-.2l15.2-.1V381l-16.2-.2-16.3-.3v-39l-12.2-.3c-6.7-.1-12.3.1-12.5.5zM321.5 380c-15.6 3.1-27.5 12.3-33.6 25.6-3.5 7.7-3.9 9.7-4.5 21-1.3 30.3 13.1 49 40.9 52.9 5.4.7 43.6 1 44.3.2.5-.4.7-7.2.5-16.3l-.1-5-19.7-.1c-11.2 0-21.6-.6-23.9-1.2-5.1-1.4-10.9-6.5-12.9-11.4L311 442h2.7c1.6-.1 18-.1 36.6-.1 25 0 33.7-.4 33.8-1.2.6-5.8.2-15.6-.7-21.9-3-19.5-14.7-32.7-33.2-37.7-8.2-2.2-20.8-2.7-28.7-1.1zm25.6 23.3c5.7 2.4 11.9 11.5 11.9 17.6 0 .8-6.9 1.1-24.5 1.1-26.8 0-25.5.3-23.4-6.1 2.7-8 9.5-13.6 17.6-14.6 2.6-.3 4.9-.6 5.1-.8.6-.5 10.1 1.4 13.3 2.8zM758 380.9c-16.2 5.2-27.5 16-33.2 31.8-2 5.4-2.2 8-2.4 36.5l-.2 30.8 3.4.1h19.2l2.7-.1.1-28.3c0-18.9.5-29.6 1.3-32.5 1.6-5.8 7.1-11.6 13.9-14.8 3.2-1.4 6.4-2.9 7.2-3.3 1.2-.7 1.5-3.1 1.6-11.5l.1-10.6-4.1.1c-2.3 0-6.6.8-9.6 1.8zM618.3 381.3c-.7 1.2-.6 68.2.2 71.9 2.4 12.1 12.4 22.6 24.4 25.8 3.7 1 30.5 1.5 54.6 1.1l3-.1v-99l-3.2-.1h-19.1l-2.8.1v38.5c.1 33.5-.1 38.5-1.4 38.6-5.6.4-17 .1-19.5-.5-3.8-.9-6.7-3.3-9.4-7.7-2-3.3-2.1-4.8-2.1-36.1v-32.7l-12.1-.3c-6.7-.2-12.3 0-12.6.5zM177 450.5l.1 69.6 12.4-.2c10.9-.1 12.5-.3 12.5-1.8.1-.9 0-11.1 0-22.7l-.1-21.1 15.5-.1c21.1-.2 30.5-2.7 40-10.8 9.4-8.1 13.5-18.9 13.7-36.1.2-19.7-7-33.2-21.7-41-8.7-4.6-14.7-5.3-45.1-5.3H177v69.5zm57.9-44.7c2.7 1.6 5.8 4.8 7.6 7.6 2.6 4.3 3 6 3.2 12.8.3 11.5-3.1 18.6-11.2 23.3-3.9 2.4-5.3 2.6-16.2 2.7-6.5 0-12.8 0-14-.1l-2.3-.1.1-24.4c0-21.8.2-24.5 1.6-24.8.9-.2 7.3-.2 14.2-.1 11.8.3 12.8.4 17 3.1zM402 430.4l.1 49.6 3.2.1c11.2.2 21-.1 21.4-.5.3-.3.6-17.7.6-38.6 0-27.3.3-38 1.1-38.1.6 0 5.2-.1 10.2-.1 10.5 0 13.8 1.3 18.1 6.9l2.8 3.6.2 33.1c0 18.2.1 33.3.2 33.6.1.3 5.5.5 12.1.5 9.8 0 12.1-.3 12.4-1.5.3-.8.4-17.5.3-37l-.2-35.5-3.3-6.7c-3.6-7.3-8.7-12.4-16.1-16-4.4-2.2-5.8-2.3-33.9-2.6l-29.2-.3v49.5z"/></svg>